<svg width="20" height="21" viewBox="0 0 20 21" fill="none" xmlns="http://www.w3.org/2000/svg">
<path d="M10 20.5C4.47715 20.5 0 16.0228 0 10.5C0 4.97715 4.47715 0.5 10 0.5C15.5228 0.5 20 4.97715 20 10.5C20 16.0228 15.5228 20.5 10 20.5ZM10 18.5C14.4183 18.5 18 14.9183 18 10.5C18 6.08172 14.4183 2.5 10 2.5C5.58172 2.5 2 6.08172 2 10.5C2 14.9183 5.58172 18.5 10 18.5ZM8.6219 6.91459L13.5008 10.1672C13.6846 10.2897 13.7343 10.5381 13.6117 10.7219C13.5824 10.7658 13.5447 10.8035 13.5008 10.8328L8.6219 14.0854C8.4381 14.208 8.1897 14.1583 8.0672 13.9745C8.0234 13.9088 8 13.8316 8 13.7526V7.24741C8 7.02649 8.1791 6.84741 8.4 6.84741C8.479 6.84741 8.5562 6.87078 8.6219 6.91459Z" fill="#BA7BD5"/>
</svg>
