<svg width="18" height="21" viewBox="0 0 18 21" fill="none" xmlns="http://www.w3.org/2000/svg">
<path d="M2.04612 11.75H4.99998C5.13843 11.75 5.26855 11.7846 5.39035 11.8539C5.51213 11.9231 5.60508 12.0269 5.6692 12.1654L6.99998 14.8077L10.3308 8.16541C10.4692 7.87822 10.6939 7.73463 11.0048 7.73463C11.3157 7.73463 11.5404 7.87822 11.6788 8.16541L13.4711 11.75H15.9538C15.7679 9.98591 15.0138 8.50321 13.6913 7.30193C12.3689 6.10065 10.8051 5.50001 8.99998 5.50001C7.19484 5.50001 5.63106 6.10065 4.30863 7.30193C2.98619 8.50321 2.23202 9.98591 2.04612 11.75ZM8.99998 19.5C10.8051 19.5 12.3689 18.8994 13.6913 17.6981C15.0138 16.4968 15.7679 15.0141 15.9538 13.25H13C12.8615 13.25 12.7314 13.2154 12.6096 13.1462C12.4878 13.0769 12.3949 12.9731 12.3308 12.8346L11 10.1923L7.6692 16.8442C7.53073 17.1314 7.30606 17.2734 6.99518 17.2702C6.68428 17.267 6.4596 17.1218 6.32115 16.8346L4.52882 13.25H2.04612C2.23202 15.0141 2.98619 16.4968 4.30863 17.6981C5.63106 18.8994 7.19484 19.5 8.99998 19.5ZM8.99998 21C7.83074 21 6.73075 20.7769 5.7 20.3307C4.66923 19.8846 3.76795 19.2756 2.99615 18.5038C2.22437 17.732 1.6154 16.8307 1.16925 15.8C0.723083 14.7692 0.5 13.6692 0.5 12.5H1.99997C1.99997 14.4333 2.68331 16.0833 4.04998 17.45C5.41664 18.8167 7.06664 19.5 8.99998 19.5C10.9333 19.5 12.5833 18.8167 13.95 17.45C15.3166 16.0833 16 14.4333 16 12.5H17.5C17.5 13.6692 17.2769 14.7692 16.8307 15.8C16.3846 16.8307 15.7756 17.732 15.0038 18.5038C14.232 19.2756 13.3307 19.8846 12.3 20.3307C11.2692 20.7769 10.1692 21 8.99998 21ZM0.5 12.5C0.5 11.3308 0.723083 10.2308 1.16925 9.20003C1.6154 8.16926 2.22437 7.26798 2.99615 6.49618C3.76795 5.7244 4.66923 5.11543 5.7 4.66928C6.73075 4.22311 7.83074 4.00003 8.99998 4.00003C10.0013 4.00003 10.9657 4.16991 11.8933 4.50966C12.8208 4.84941 13.682 5.33595 14.4769 5.96928L15.723 4.72313L16.7769 5.77696L15.5307 7.02311C16.164 7.81797 16.6506 8.67918 16.9903 9.60673C17.3301 10.5343 17.5 11.4987 17.5 12.5H16C16 10.5667 15.3166 8.91667 13.95 7.55001C12.5833 6.18334 10.9333 5.50001 8.99998 5.50001C7.06664 5.50001 5.41664 6.18334 4.04998 7.55001C2.68331 8.91667 1.99997 10.5667 1.99997 12.5H0.5ZM6.1923 2.24998V0.750031H11.8077V2.24998H6.1923ZM8.99998 19.5C7.06664 19.5 5.41664 18.8167 4.04998 17.45C2.68331 16.0833 1.99997 14.4333 1.99997 12.5C1.99997 10.5667 2.68331 8.91667 4.04998 7.55001C5.41664 6.18334 7.06664 5.50001 8.99998 5.50001C10.9333 5.50001 12.5833 6.18334 13.95 7.55001C15.3166 8.91667 16 10.5667 16 12.5C16 14.4333 15.3166 16.0833 13.95 17.45C12.5833 18.8167 10.9333 19.5 8.99998 19.5Z" fill="#67C95D"/>
</svg>
