<svg width="20" height="18" viewBox="0 0 20 18" fill="none" xmlns="http://www.w3.org/2000/svg">
<path d="M2.50007 12C1.80137 12 1.21004 11.758 0.726072 11.2741C0.242105 10.7901 0.00012207 10.1987 0.00012207 9.50005C0.00012207 8.80135 0.242105 8.21001 0.726072 7.72602C1.21004 7.24206 1.80137 7.00007 2.50007 7.00007V4.50005C2.50007 4.09108 2.64783 3.73885 2.94335 3.44335C3.23885 3.14783 3.59108 3.00007 4.00005 3.00007H7.50007C7.50007 2.30137 7.74206 1.71004 8.22602 1.22607C8.71001 0.742105 9.30135 0.500122 10 0.500122C10.6987 0.500122 11.2901 0.742105 11.7741 1.22607C12.258 1.71004 12.5 2.30137 12.5 3.00007H16C16.409 3.00007 16.7612 3.14783 17.0567 3.44335C17.3523 3.73885 17.5 4.09108 17.5 4.50005V7.00007C18.1987 7.00007 18.7901 7.24206 19.274 7.72602C19.758 8.21001 20 8.80135 20 9.50005C20 10.1987 19.758 10.7901 19.274 11.2741C18.7901 11.758 18.1987 12 17.5 12V16.5C17.5 16.909 17.3523 17.2612 17.0567 17.5567C16.7612 17.8523 16.409 18 16 18H4.00005C3.59108 18 3.23885 17.8523 2.94335 17.5567C2.64783 17.2612 2.50007 16.909 2.50007 16.5V12ZM6.99892 10.25C7.34582 10.25 7.64106 10.1286 7.88465 9.88577C8.12823 9.64294 8.25002 9.34807 8.25002 9.00117C8.25002 8.65427 8.12861 8.35903 7.88577 8.11545C7.64294 7.87186 7.34807 7.75007 7.00117 7.75007C6.65427 7.75007 6.35903 7.87149 6.11545 8.11432C5.87186 8.35716 5.75007 8.65202 5.75007 8.99892C5.75007 9.34582 5.87149 9.64106 6.11432 9.88465C6.35716 10.1282 6.65202 10.25 6.99892 10.25ZM12.9989 10.25C13.3458 10.25 13.6411 10.1286 13.8846 9.88577C14.1282 9.64294 14.25 9.34807 14.25 9.00117C14.25 8.65427 14.1286 8.35903 13.8858 8.11545C13.6429 7.87186 13.3481 7.75007 13.0012 7.75007C12.6543 7.75007 12.359 7.87149 12.1154 8.11432C11.8719 8.35716 11.7501 8.65202 11.7501 8.99892C11.7501 9.34582 11.8715 9.64106 12.1143 9.88465C12.3572 10.1282 12.652 10.25 12.9989 10.25ZM6.25007 14.25H13.75V12.7501H6.25007V14.25ZM4.00005 16.5H16V4.50005H4.00005V16.5Z" fill="#2FC4EE"/>
</svg>
