<svg width="21" height="20" viewBox="0 0 21 20" fill="none" xmlns="http://www.w3.org/2000/svg">
<path d="M10.9126 7C9.25522 7 7.9126 8.3431 7.9126 10C7.9126 11.6573 9.25572 13 10.9126 13C12.5699 13 13.9126 11.6569 13.9126 10C13.9126 8.3427 12.5695 7 10.9126 7ZM10.9126 5C13.673 5 15.9126 7.2371 15.9126 10C15.9126 12.7605 13.6755 15 10.9126 15C8.15213 15 5.9126 12.7629 5.9126 10C5.9126 7.23953 8.1497 5 10.9126 5ZM17.4126 4.74915C17.4126 5.43926 16.8518 5.99917 16.1626 5.99917C15.4725 5.99917 14.9126 5.4384 14.9126 4.74915C14.9126 4.0599 15.4733 3.5 16.1626 3.5C16.8509 3.49913 17.4126 4.0599 17.4126 4.74915ZM10.9126 2C8.43812 2 8.0348 2.00655 6.88389 2.0578C6.09977 2.09461 5.57415 2.20007 5.08578 2.38967C4.65178 2.55799 4.33871 2.75898 4.00514 3.09255C3.67029 3.4274 3.46966 3.73963 3.30202 4.17383C3.11198 4.66332 3.00655 5.18811 2.9704 5.97115C2.91865 7.0752 2.9126 7.46105 2.9126 10C2.9126 12.4745 2.91915 12.8778 2.97039 14.0286C3.00722 14.8124 3.11282 15.3388 3.30196 15.826C3.47072 16.2606 3.67212 16.5744 4.00408 16.9064C4.34025 17.2421 4.65341 17.4434 5.08349 17.6094C5.57781 17.8005 6.1031 17.9061 6.88374 17.9422C7.9878 17.9939 8.37365 18 10.9126 18C13.3871 18 13.7904 17.9934 14.9412 17.9422C15.7233 17.9055 16.2501 17.7996 16.7386 17.6106C17.172 17.4423 17.4868 17.2402 17.819 16.9085C18.1552 16.5718 18.3561 16.2594 18.5223 15.8283C18.7129 15.3358 18.8187 14.8098 18.8548 14.0289C18.9065 12.9248 18.9126 12.5389 18.9126 10C18.9126 7.52552 18.906 7.12221 18.8548 5.97137C18.818 5.18906 18.7121 4.66149 18.5229 4.17318C18.355 3.74038 18.1533 3.42635 17.82 3.09255C17.4846 2.75715 17.1732 2.55693 16.7387 2.38942C16.2496 2.19954 15.724 2.09396 14.9414 2.05781C13.8374 2.00605 13.4515 2 10.9126 2ZM10.9126 0C13.6292 0 13.9684 0.00999994 15.0351 0.0599999C16.0992 0.10917 16.8251 0.2775 17.4626 0.525C18.1217 0.77917 18.6784 1.1225 19.2342 1.67833C19.7892 2.23417 20.1326 2.7925 20.3876 3.45C20.6342 4.08667 20.8026 4.81333 20.8526 5.8775C20.9001 6.94417 20.9126 7.28333 20.9126 10C20.9126 12.7167 20.9026 13.0558 20.8526 14.1225C20.8034 15.1867 20.6342 15.9125 20.3876 16.55C20.1334 17.2092 19.7892 17.7658 19.2342 18.3217C18.6784 18.8767 18.1192 19.22 17.4626 19.475C16.8251 19.7217 16.0992 19.89 15.0351 19.94C13.9684 19.9875 13.6292 20 10.9126 20C8.19593 20 7.85676 19.99 6.7901 19.94C5.72593 19.8908 5.00093 19.7217 4.3626 19.475C3.70426 19.2208 3.14676 18.8767 2.59093 18.3217C2.0351 17.7658 1.6926 17.2067 1.4376 16.55C1.1901 15.9125 1.0226 15.1867 0.972598 14.1225C0.925098 13.0558 0.912598 12.7167 0.912598 10C0.912598 7.28333 0.922598 6.94417 0.972598 5.8775C1.02176 4.8125 1.1901 4.0875 1.4376 3.45C1.69176 2.79167 2.0351 2.23417 2.59093 1.67833C3.14676 1.1225 3.7051 0.78 4.3626 0.525C5.0001 0.2775 5.7251 0.11 6.7901 0.0599999C7.85676 0.0124999 8.19593 0 10.9126 0Z" fill="black"/>
</svg>
