<svg width="16" height="22" viewBox="0 0 16 22" fill="none" xmlns="http://www.w3.org/2000/svg">
<path d="M5.97308 16.5H7V11.5H9V16.5H10.0269C10.1589 15.2984 10.7721 14.3065 11.7676 13.2226C11.8797 13.1006 12.5988 12.3564 12.6841 12.2501C13.5318 11.1931 14 9.885 14 8.5C14 5.18629 11.3137 2.5 8 2.5C4.68629 2.5 2 5.18629 2 8.5C2 9.8843 2.46774 11.1917 3.31462 12.2484C3.40004 12.355 4.12081 13.1012 4.23154 13.2218C5.22766 14.3064 5.84103 15.2984 5.97308 16.5ZM6 18.5V19.5H10V18.5H6ZM1.75395 13.4992C0.65645 12.1297 0 10.3915 0 8.5C0 4.08172 3.58172 0.5 8 0.5C12.4183 0.5 16 4.08172 16 8.5C16 10.3925 15.3428 12.1315 14.2443 13.5014C13.624 14.2748 12 15.5 12 17V19.5C12 20.6046 11.1046 21.5 10 21.5H6C4.89543 21.5 4 20.6046 4 19.5V17C4 15.5 2.37458 14.2736 1.75395 13.4992Z" fill="#F4D566"/>
</svg>
