<svg width="20" height="18" viewBox="0 0 20 18" fill="none" xmlns="http://www.w3.org/2000/svg">
<path d="M4.44048 1.99993C4.44011 2.81424 3.94608 3.54702 3.19134 3.85273C2.4366 4.15845 1.57187 3.97605 1.0049 3.39155C0.43793 2.80704 0.28195 1.93715 0.6105 1.19207C0.93906 0.44699 1.68654 -0.0245006 2.50048 -7.061e-05C3.58155 0.0323794 4.44097 0.918369 4.44048 1.99993ZM4.50048 5.47993H0.50048V17.9999H4.50048V5.47993ZM10.8205 5.47993H6.84048V17.9999H10.7805V11.4299C10.7805 7.7699 15.5505 7.4299 15.5505 11.4299V17.9999H19.5005V10.0699C19.5005 3.89993 12.4405 4.12993 10.7805 7.1599L10.8205 5.47993Z" fill="black"/>
</svg>
