<svg width="21" height="16" viewBox="0 0 21 16" fill="none" xmlns="http://www.w3.org/2000/svg">
<path d="M10.332 0C10.8661 0.00294 12.2024 0.0158601 13.6222 0.0727301L14.1256 0.0946798C15.5551 0.16236 16.9834 0.27798 17.6918 0.4755C18.6367 0.74095 19.3794 1.5155 19.6304 2.49732C20.0301 4.05641 20.0801 7.0994 20.0863 7.8358L20.0872 7.9884V7.9991C20.0872 7.9991 20.0872 8.0028 20.0872 8.0099L20.0863 8.1625C20.0801 8.8989 20.0301 11.9419 19.6304 13.501C19.3759 14.4864 18.6332 15.261 17.6918 15.5228C16.9834 15.7203 15.5551 15.8359 14.1256 15.9036L13.6222 15.9255C12.2024 15.9824 10.8661 15.9953 10.332 15.9983L10.0976 15.9991H10.0872C10.0872 15.9991 10.0837 15.9991 10.0768 15.9991L9.84264 15.9983C8.71224 15.9921 3.98585 15.941 2.48264 15.5228C1.53773 15.2573 0.795055 14.4828 0.544005 13.501C0.144335 11.9419 0.0943748 8.8989 0.0881348 8.1625V7.8358C0.0943748 7.0994 0.144335 4.05641 0.544005 2.49732C0.798535 1.51186 1.54121 0.73732 2.48264 0.4755C3.98585 0.0572301 8.71224 0.00622 9.84264 0H10.332ZM8.08724 4.49914V11.4991L14.0872 7.9991L8.08724 4.49914Z" fill="black"/>
</svg>
